<svg width="25" height="25" viewBox="0 0 25 25" fill="none" xmlns="http://www.w3.org/2000/svg">
<circle cx="12.5" cy="12.5" r="12.5" fill="#D9D9D9"/>
<circle cx="12.5" cy="12.5" r="12.5" fill="#FCFCFC"/>
<path d="M10.75 14.75L8.0625 12.0625C7.83333 11.8333 7.54167 11.7187 7.1875 11.7187C6.83333 11.7187 6.54167 11.8333 6.3125 12.0625C6.08333 12.2917 5.96875 12.5833 5.96875 12.9375C5.96875 13.2917 6.08333 13.5833 6.3125 13.8125L9.875 17.375C10.125 17.625 10.4167 17.75 10.75 17.75C11.0833 17.75 11.375 17.625 11.625 17.375L18.6875 10.3125C18.9167 10.0833 19.0312 9.79167 19.0312 9.4375C19.0312 9.08333 18.9167 8.79167 18.6875 8.5625C18.4583 8.33333 18.1667 8.21875 17.8125 8.21875C17.4583 8.21875 17.1667 8.33333 16.9375 8.5625L10.75 14.75ZM12.5 25C10.7708 25 9.14583 24.6717 7.625 24.015C6.10417 23.3583 4.78125 22.4679 3.65625 21.3437C2.53125 20.2187 1.64083 18.8958 0.985 17.375C0.329167 15.8542 0.000833333 14.2292 0 12.5C0 10.7708 0.328333 9.14583 0.985 7.625C1.64167 6.10417 2.53208 4.78125 3.65625 3.65625C4.78125 2.53125 6.10417 1.64083 7.625 0.985C9.14583 0.329167 10.7708 0.000833333 12.5 0C14.2292 0 15.8542 0.328333 17.375 0.985C18.8958 1.64167 20.2187 2.53208 21.3437 3.65625C22.4687 4.78125 23.3596 6.10417 24.0162 7.625C24.6729 9.14583 25.0008 10.7708 25 12.5C25 14.2292 24.6717 15.8542 24.015 17.375C23.3583 18.8958 22.4679 20.2187 21.3437 21.3437C20.2187 22.4687 18.8958 23.3596 17.375 24.0162C15.8542 24.6729 14.2292 25.0008 12.5 25Z" fill="#57E338"/>
</svg>
