<svg width="14" height="13" viewBox="0 0 20 20" fill="current" xmlns="http://www.w3.org/2000/svg">
<path d="M10 20C7.20833 20 4.84375 19.0312 2.90625 17.0938C0.96875 15.1562 0 12.7917 0 10C0 7.20833 0.96875 4.84375 2.90625 2.90625C4.84375 0.96875 7.20833 0 10 0C11.4375 0 12.8125 0.296667 14.125 0.89C15.4375 1.48333 16.5625 2.3325 17.5 3.4375V0H20V8.75H11.25V6.25H16.5C15.8333 5.08333 14.9217 4.16667 13.765 3.5C12.6083 2.83333 11.3533 2.5 10 2.5C7.91667 2.5 6.14583 3.22917 4.6875 4.6875C3.22917 6.14583 2.5 7.91667 2.5 10C2.5 12.0833 3.22917 13.8542 4.6875 15.3125C6.14583 16.7708 7.91667 17.5 10 17.5C11.6042 17.5 13.0521 17.0417 14.3438 16.125C15.6354 15.2083 16.5417 14 17.0625 12.5H19.6875C19.1042 14.7083 17.9167 16.5104 16.125 17.9062C14.3333 19.3021 12.2917 20 10 20Z"/>
</svg>
